Coordinates
version=1
nRows=8
nColumns=40
inDegrees=yes

Units are S.I. units (second, meters, Newtons, ...)
Angles are in degrees.

endheader
time	pelvis_tilt	pelvis_list	pelvis_rotation	pelvis_tx	pelvis_ty	pelvis_tz	hip_flexion_r	hip_adduction_r	hip_rotation_r	knee_angle_r	knee_angle_r_beta	ankle_angle_r	subtalar_angle_r	mtp_angle_r	hip_flexion_l	hip_adduction_l	hip_rotation_l	knee_angle_l	knee_angle_l_beta	ankle_angle_l	subtalar_angle_l	mtp_angle_l	lumbar_extension	lumbar_bending	lumbar_rotation	arm_flex_r	arm_add_r	arm_rot_r	elbow_flex_r	pro_sup_r	wrist_flex_r	wrist_dev_r	arm_flex_l	arm_add_l	arm_rot_l	elbow_flex_l	pro_sup_l	wrist_flex_l	wrist_dev_l
     14.45750000	     -2.27025382	     -4.53890196	     -1.90902921	      1.04155254	      0.93158366	      0.49166505	     15.72076931	      2.50991990	     -8.93822177	     19.90067515	     19.90067515	      7.95094762	     -3.13724818	     -0.65590789	      5.21596859	     -9.73080062	    -11.08205918	     34.03293100	     34.03293100	     15.09699325	    -11.12524226	     -6.15428180	     -9.40798965	      4.63325069	     -1.04975136	      1.43907857	    -14.86306712	     -6.67108816	     47.53455991	     45.01532828	      0.00000000	      0.00000000	     11.94148718	    -11.55865666	     -5.80681146	     29.95189265	     46.00094235	      0.00000000	      0.00000000
     14.47057143	     -2.23296400	     -4.57043091	     -1.45188275	      1.04224821	      0.93189879	      0.49393833	     15.15320515	      2.50596173	     -9.83487297	     19.78518837	     19.78518837	      8.43789204	     -2.20360852	     -0.65074342	      6.70293481	    -10.24385852	     -9.91874022	     37.08024903	     37.08024903	     12.48793857	    -13.10350698	     -9.29854723	     -9.38293262	      4.67089363	     -0.80139831	      1.04905589	    -15.75605738	     -5.42212219	     51.96176395	     44.84329465	      0.00000000	      0.00000000	     11.40129833	    -11.32662816	     -4.88392906	     28.45787933	     45.88211148	      0.00000000	      0.00000000
     14.48364286	     -2.11381595	     -4.72551534	     -1.00280731	      1.04265622	      0.93218815	      0.49625740	     14.49009093	      2.72859593	    -10.40871228	     19.60084831	     19.60084831	      8.76859002	     -1.87781303	     -0.74349613	      8.36810018	    -10.94709848	     -8.82140993	     40.62980146	     40.62980146	     11.07344382	    -13.95482022	     -9.50263234	     -9.47668307	      4.79112515	     -0.71718477	      2.16561836	    -16.02894757	     -5.59593563	     52.83240464	     44.83087659	      0.00000000	      0.00000000	     10.52983712	    -11.13227301	     -4.74399772	     27.93931828	     45.84867150	      0.00000000	      0.00000000
     14.49671429	     -2.17157003	     -4.70086108	     -0.54105954	      1.04278876	      0.93203207	      0.49813943	     14.12153229	      2.62216805	    -11.36717930	     19.61386256	     19.61386256	      9.26323624	     -0.84828857	     -0.93767354	     10.34558410	    -11.22170077	     -7.37471033	     44.20002111	     44.20002111	      9.63694946	    -15.23395388	     -8.98989333	     -9.35314095	      4.76002378	     -0.91683094	      2.73310761	    -16.46869265	     -5.37760758	     55.75073956	     44.75140864	      0.00000000	      0.00000000	      9.46766656	    -11.08071633	     -4.10333547	     27.29974065	     45.74546308	      0.00000000	      0.00000000
     14.50978571	     -2.10375130	     -4.78774959	     -0.11856791	      1.04265934	      0.93189662	      0.49994655	     13.68344503	      2.70007000	    -12.01052076	     19.69657710	     19.69657710	      9.70528913	     -0.34816263	     -1.05669791	     12.24559762	    -11.59775703	     -6.06540377	     47.75630065	     47.75630065	      8.55096634	    -15.97084941	     -7.68431949	     -9.46964290	      4.86893333	     -0.85835615	      3.57765552	    -16.95914993	     -5.37231544	     57.77196789	     44.70972097	      0.00000000	      0.00000000	      8.54102762	    -10.89275281	     -3.57045411	     26.91637493	     45.65689709	      0.00000000	      0.00000000
     14.52285714	     -2.07605024	     -4.86400172	      0.27585045	      1.04229510	      0.93161870	      0.50154042	     13.30765983	      2.74803516	    -12.66820919	     19.78496456	     19.78496456	     10.17049257	      0.22962748	     -1.14493044	     14.23404213	    -11.84804236	     -4.75960801	     51.22378108	     51.22378108	      8.10269315	    -16.36528022	     -4.86235623	     -9.54921654	      4.98215561	     -0.63882879	      4.27969292	    -17.60555417	     -5.31672633	     59.97426624	     44.67013197	      0.00000000	      0.00000000	      7.62391666	    -10.69315875	     -2.88598718	     26.83955763	     45.54828147	      0.00000000	      0.00000000
     14.53592857	     -2.00996136	     -5.00793778	      0.58815589	      1.04177535	      0.93139420	      0.50308861	     12.85004356	      2.95585358	    -12.98556777	     19.72429070	     19.72429070	     10.47867689	      0.39591595	     -1.22057977	     16.01827330	    -12.17847097	     -3.68785333	     54.16382111	     54.16382111	      7.07639357	    -16.88242459	     -4.24935126	     -9.67678393	      5.18149418	     -0.21775992	      5.45802909	    -18.15769765	     -5.54672925	     60.70400771	     44.66581028	      0.00000000	      0.00000000	      6.86990830	    -10.35088198	     -2.74291496	     26.61072990	     45.51491791	      0.00000000	      0.00000000
     14.54900000	     -2.06275044	     -4.95162042	      0.92985765	      1.04092742	      0.93100563	      0.50425171	     12.67335716	      2.82979412	    -13.56632844	     19.96246373	     19.96246373	     11.01726254	      0.99364229	     -1.33016663	     18.05154251	    -12.03847003	     -2.45425375	     57.10347576	     57.10347576	      8.02289407	    -16.88655577	      1.34090746	     -9.75140681	      5.13258580	     -0.24158611	      6.41360286	    -18.70446319	     -5.41061935	     63.31914505	     44.61586359	      0.00000000	      0.00000000	      5.62080551	    -10.27626271	     -2.13169753	     27.00656132	     45.41349991	      0.00000000	      0.00000000
